<?xml version="1.0" encoding="UTF-8"?>
<svg version="1.1" xmlns="http://www.w3.org/2000/svg" width="256" height="256">
<path d="M0 0 C84.48 0 168.96 0 256 0 C256 84.48 256 168.96 256 256 C171.52 256 87.04 256 0 256 C0 171.52 0 87.04 0 0 Z " fill="#131314" transform="translate(0,0)"/>
<path d="M0 0 C84.48 0 168.96 0 256 0 C256 84.48 256 168.96 256 256 C171.52 256 87.04 256 0 256 C0 171.52 0 87.04 0 0 Z M36 43 C31.32594965 49.03138582 28.75517902 55.16992653 28.73930359 62.88652039 C28.72867638 64.61677711 28.72867638 64.61677711 28.71783447 66.38198853 C28.72031189 67.63353729 28.72278931 68.88508606 28.7253418 70.17456055 C28.72099044 71.51718936 28.71580588 72.85981569 28.70985413 74.20243835 C28.69649367 77.83909741 28.69588249 81.47565234 28.69841743 85.11233115 C28.69948983 88.1561309 28.69459652 91.19990982 28.689812 94.24370509 C28.67872554 101.43193588 28.67827359 108.62011441 28.68432617 115.80834961 C28.69035647 123.20190297 28.6780771 130.59526558 28.6567561 137.9887864 C28.63908313 144.35337011 28.63314796 150.71789344 28.63639385 157.08250076 C28.63819889 160.87616113 28.6356496 164.66968563 28.62167931 168.46332359 C28.60901364 172.03637413 28.61112658 175.60913007 28.62409019 179.18217659 C28.62754708 181.10158191 28.61634069 183.0209966 28.60452271 184.94036865 C28.67816585 197.19901771 30.90142671 207.83874616 39.76953125 216.78515625 C46.08704518 222.38696054 52.40915067 226.22802937 61.01182556 226.28761292 C62.21851898 226.30047836 63.4252124 226.31334381 64.66847229 226.32659912 C65.98435837 226.33040588 67.30024445 226.33421265 68.65600586 226.33813477 C70.0625874 226.34903685 71.46916314 226.36070931 72.87573242 226.37309265 C76.69235817 226.40355344 80.50892369 226.42060753 84.32564616 226.43330884 C86.71565257 226.44140899 89.10564197 226.45159045 91.49563789 226.46232414 C98.9889005 226.49504109 106.48212138 226.51893638 113.97544569 226.531138 C122.59558799 226.54536054 131.21490703 226.58912847 139.83477682 226.65863949 C146.51530708 226.71063309 153.19560495 226.7353279 159.87633425 226.73996013 C163.85763838 226.7433401 167.83810995 226.75790779 171.8191967 226.80124092 C175.57313026 226.84138461 179.32566437 226.84723046 183.07975006 226.82834053 C185.09053882 226.8264975 187.10127059 226.85903448 189.11177063 226.89315796 C200.66152781 226.77585817 210.40752989 223.0573457 218.625 214.6875 C224.23739712 207.6689991 227.11370234 199.31688592 227.14044189 190.38522339 C227.14615204 189.24143723 227.15186218 188.09765106 227.15774536 186.91920471 C227.15886322 185.66824509 227.15998108 184.41728546 227.16113281 183.12841797 C227.16576354 181.79431522 227.17078855 180.46021379 227.17617798 179.12611389 C227.18928297 175.5038945 227.1957437 171.88169364 227.20018864 168.25945425 C227.20312358 165.99328076 227.20722928 163.72711228 227.21169281 161.46094131 C227.22536528 154.36172188 227.23503208 147.26251396 227.2388947 140.16328228 C227.24336926 131.98541622 227.26089008 123.80771782 227.2898953 115.62990272 C227.31156682 109.29850454 227.32160196 102.96715332 227.32293582 96.63571846 C227.32398032 92.85937366 227.32981146 89.0831865 227.34775543 85.30688095 C227.36433016 81.74947115 227.36634654 78.19233589 227.35761642 74.63490105 C227.35648851 72.72123581 227.3701347 70.8075793 227.3843689 68.89396667 C227.32599941 56.72878487 224.87978498 48.12725926 216.37109375 39.3125 C209.99481779 33.3948425 201.96754929 29.88857863 193.2776947 29.85282898 C191.48835007 29.84209602 191.48835007 29.84209602 189.66285706 29.83114624 C188.35219772 29.82845734 187.04153839 29.82576843 185.69116211 29.82299805 C184.29809398 29.81673198 182.90502752 29.81008505 181.51196289 29.80308533 C176.93376833 29.7820515 172.35557348 29.77168045 167.77734375 29.76171875 C166.19913783 29.7576703 164.62093208 29.75355335 163.04272652 29.74936867 C155.62421298 29.73031488 148.20570938 29.71608682 140.78717607 29.7077567 C132.23740244 29.69799696 123.68788858 29.67171146 115.13820642 29.63125581 C108.52233096 29.60103078 101.90652966 29.58628161 95.29058653 29.58297569 C91.34314767 29.58063157 87.39598624 29.5717556 83.44862175 29.54651451 C79.72948117 29.52311794 76.01079837 29.51904652 72.29160309 29.52927589 C70.28964295 29.53000208 68.28770545 29.51099048 66.2858429 29.49121094 C53.19878991 29.5661503 44.89823165 33.40634705 36 43 Z " fill="#F3EEE6" transform="translate(0,0)"/>
<path d="M0 0 C84.18472469 0 84.18472469 0 100 14 C107.52196378 22.48514207 109.23834169 31.61778805 109.3125 42.625 C109.31813965 43.42470215 109.3237793 44.2244043 109.32958984 45.04833984 C109.19798342 55.85568063 105.80938731 67.19061269 98 75 C92.98108275 78.81555112 87.88037072 81.74794313 82 84 C83.34020735 87.61367978 84.95983545 90.74566203 87.01953125 94 C87.62361816 94.95970703 88.22770508 95.91941406 88.85009766 96.90820312 C89.49769043 97.92849609 90.1452832 98.94878906 90.8125 100 C92.17100342 102.1559788 93.52906774 104.31223433 94.88671875 106.46875 C95.5729834 107.55671875 96.25924805 108.6446875 96.96630859 109.765625 C100.04463937 114.66139044 103.08653011 119.57942977 106.125 124.5 C107.14830092 126.15633439 108.17173139 127.81258875 109.1953125 129.46875 C109.89575684 130.60570312 109.89575684 130.60570312 110.61035156 131.765625 C111.55414309 133.28311974 112.50967971 134.79335982 113.47558594 136.296875 C113.93481445 137.01359375 114.39404297 137.7303125 114.8671875 138.46875 C115.2782373 139.10232422 115.68928711 139.73589844 116.11279297 140.38867188 C117 142 117 142 117 144 C105.45 144 93.9 144 82 144 C75.375 132.5 75.375 132.5 73.1706543 128.6730957 C69.78631192 122.80514205 66.38859781 116.94594958 62.95703125 111.10546875 C62.00594482 109.48511719 62.00594482 109.48511719 61.03564453 107.83203125 C59.82472228 105.77170383 58.61095729 103.71304394 57.39404297 101.65625 C56.57057373 100.25439453 56.57057373 100.25439453 55.73046875 98.82421875 C55.00960083 97.60351685 55.00960083 97.60351685 54.27416992 96.3581543 C53 94 53 94 51 89 C44.4 89 37.8 89 31 89 C31 107.15 31 125.3 31 144 C20.77 144 10.54 144 0 144 C0 96.48 0 48.96 0 0 Z " fill="#F1ECE5" transform="translate(71,56)"/>
<path d="M0 0 C1.35587247 -0.00271342 2.71174347 -0.00627632 4.06761169 -0.01062012 C7.73507693 -0.01970642 11.40242911 -0.01621498 15.06989622 -0.00986195 C18.91872164 -0.00478036 22.76753771 -0.00949958 26.61636353 -0.01263428 C33.0806857 -0.01626852 39.54496212 -0.01148997 46.00927734 -0.00195312 C53.46590645 0.00892118 60.92242608 0.00541113 68.37905252 -0.00560594 C74.79627584 -0.01470528 81.21346634 -0.0159509 87.63069403 -0.0107286 C91.45665823 -0.00762224 95.28257112 -0.00716249 99.10853195 -0.01380157 C102.70862721 -0.0196127 106.30858253 -0.01550982 109.9086628 -0.00401306 C111.84751828 -0.00014071 113.7863857 -0.00602056 115.72523499 -0.01226807 C130.08109189 0.05682254 142.92660502 3.19153788 153.58837891 13.25878906 C164.16282739 24.87814352 166.89806174 36.06502568 166.84716797 51.49267578 C166.85242493 53.4600621 166.85242493 53.4600621 166.85778809 55.4671936 C166.86686191 59.04582762 166.86338815 62.62434558 166.85702991 66.20298147 C166.85194175 69.96191295 166.85666936 73.72083495 166.85980225 77.47976685 C166.86343461 83.79268158 166.85866292 90.10554943 166.84912109 96.41845703 C166.83824738 103.6961563 166.84175717 110.9737434 166.8527739 118.25143993 C166.86187891 124.51923128 166.86311612 130.78698906 166.85789657 137.05478489 C166.85479326 140.78966362 166.8543219 144.52448982 166.86096954 148.25936508 C166.86787219 152.42834758 166.85827799 156.59713986 166.84716797 160.76611328 C166.85121643 161.9892926 166.85526489 163.21247192 166.85943604 164.47271729 C166.78022191 180.57652376 163.22776727 193.6194007 151.58837891 205.25878906 C140.4664724 214.24955181 128.49193698 216.86835457 114.45727539 216.76049805 C113.08420257 216.76429166 111.71113359 216.76980021 110.33807373 216.77687073 C106.64584844 216.79070586 102.95409539 216.77974147 99.26189685 216.76315951 C95.37666734 216.74919298 91.49146206 216.75578208 87.60621643 216.7592926 C81.08595267 216.76198532 74.56587399 216.74859931 68.0456543 216.7253418 C60.5326697 216.69872677 53.01999406 216.69699202 45.50697845 216.70873016 C38.24542229 216.7195492 30.9839767 216.71328935 23.72242928 216.69917488 C20.64734308 216.69345186 17.57233878 216.69346844 14.49725151 216.69824028 C10.86991744 216.70305048 7.24291709 216.69274338 3.61564636 216.67128563 C1.66769499 216.66316531 -0.28030036 216.66952392 -2.22825623 216.67648315 C-14.19700048 216.57637464 -23.57243949 214.11077488 -33.41162109 207.25878906 C-34.36875 206.5975 -34.36875 206.5975 -35.34521484 205.92285156 C-44.49776642 198.86988309 -49.63406329 187.78534557 -51.19530296 176.539814 C-51.6790081 171.43925458 -51.57739692 166.30502108 -51.58862305 161.18603516 C-51.59519424 159.87940918 -51.60176544 158.5727832 -51.60853577 157.2265625 C-51.62945944 152.91179609 -51.63992773 148.5970298 -51.64990234 144.28222656 C-51.65395439 142.78951627 -51.65807144 141.29680616 -51.66225243 139.80409622 C-51.68127908 132.78764418 -51.6955149 125.77120247 -51.7038644 118.75472963 C-51.71362506 110.68837354 -51.73992442 102.6222927 -51.78036529 94.55603349 C-51.81064462 88.29926314 -51.82534443 82.04257118 -51.82864541 75.78572905 C-51.83098254 72.05901743 -51.83976669 68.33260069 -51.86510658 64.60596848 C-51.8929804 60.43977625 -51.88852031 56.27419005 -51.8815918 52.10791016 C-51.89440186 50.89394562 -51.90721191 49.67998108 -51.92041016 48.42922974 C-51.83232947 33.81537233 -47.38099763 22.86376005 -37.50146484 12.19628906 C-26.89587344 2.09157774 -14.03569044 -0.04508162 0 0 Z M-34.41162109 23.25878906 C-39.08567145 29.29017488 -41.65644208 35.42871559 -41.6723175 43.14530945 C-41.68294472 44.87556618 -41.68294472 44.87556618 -41.69378662 46.64077759 C-41.6913092 47.89232635 -41.68883179 49.14387512 -41.6862793 50.43334961 C-41.69063065 51.77597842 -41.69581521 53.11860475 -41.70176697 54.46122742 C-41.71512743 58.09788648 -41.7157386 61.73444141 -41.71320367 65.37112021 C-41.71213126 68.41491997 -41.71702457 71.45869888 -41.72180909 74.50249416 C-41.73289555 81.69072494 -41.73334751 88.87890348 -41.72729492 96.06713867 C-41.72126463 103.46069204 -41.73354399 110.85405464 -41.75486499 118.24757546 C-41.77253796 124.61215917 -41.77847313 130.9766825 -41.77522725 137.34128982 C-41.7734222 141.13495019 -41.7759715 144.92847469 -41.78994179 148.72211266 C-41.80260746 152.29516319 -41.80049451 155.86791913 -41.7875309 159.44096565 C-41.78407402 161.36037098 -41.7952804 163.27978566 -41.80709839 165.19915771 C-41.73345525 177.45780677 -39.51019438 188.09753522 -30.64208984 197.04394531 C-24.32457591 202.6457496 -18.00247043 206.48681844 -9.39979553 206.54640198 C-8.19310211 206.55926743 -6.98640869 206.57213287 -5.7431488 206.58538818 C-4.42726273 206.58919495 -3.11137665 206.59300171 -1.75561523 206.59692383 C-0.3490337 206.60782591 1.05754205 206.61949837 2.46411133 206.63188171 C6.28073708 206.6623425 10.0973026 206.67939659 13.91402507 206.6920979 C16.30403148 206.70019805 18.69402088 206.71037952 21.0840168 206.7211132 C28.5772794 206.75383015 36.07050029 206.77772544 43.56382459 206.78992707 C52.18396689 206.8041496 60.80328593 206.84791753 69.42315573 206.91742855 C76.10368599 206.96942215 82.78398386 206.99411696 89.46471316 206.9987492 C93.44601728 207.00212916 97.42648885 207.01669685 101.40757561 207.06002998 C105.16150917 207.10017367 108.91404328 207.10601952 112.66812897 207.08712959 C114.67891773 207.08528657 116.6896495 207.11782354 118.70014954 207.15194702 C130.24990671 207.03464723 139.9959088 203.31613476 148.21337891 194.94628906 C153.82577603 187.92778817 156.70208124 179.57567498 156.7288208 170.64401245 C156.73453094 169.50022629 156.74024109 168.35644012 156.74612427 167.17799377 C156.74724213 165.92703415 156.74835999 164.67607452 156.74951172 163.38720703 C156.75414245 162.05310428 156.75916745 160.71900285 156.76455688 159.38490295 C156.77766187 155.76268356 156.7841226 152.1404827 156.78856754 148.51824331 C156.79150249 146.25206982 156.79560818 143.98590134 156.80007172 141.71973038 C156.81374418 134.62051094 156.82341099 127.52130302 156.82727361 120.42207134 C156.83174816 112.24420528 156.84926899 104.06650688 156.8782742 95.88869178 C156.89994573 89.5572936 156.90998087 83.22594238 156.91131473 76.89450753 C156.91235922 73.11816272 156.91819037 69.34197556 156.93613434 65.56567001 C156.95270907 62.00826022 156.95472544 58.45112495 156.94599533 54.89369011 C156.94486741 52.98002487 156.95851361 51.06636837 156.9727478 49.15275574 C156.91437832 36.98757393 154.46816389 28.38604832 145.95947266 19.57128906 C139.5831967 13.65363156 131.5559282 10.14736769 122.86607361 10.11161804 C121.07672897 10.10088509 121.07672897 10.10088509 119.25123596 10.0899353 C117.94057663 10.0872464 116.6299173 10.0845575 115.27954102 10.08178711 C113.88647289 10.07552104 112.49340643 10.06887412 111.1003418 10.06187439 C106.52214724 10.04084056 101.94395238 10.03046951 97.36572266 10.02050781 C95.78751674 10.01645936 94.20931099 10.01234241 92.63110542 10.00815773 C85.21259188 9.98910394 77.79408828 9.97487588 70.37555498 9.96654576 C61.82578135 9.95678602 53.27626749 9.93050052 44.72658533 9.89004487 C38.11070987 9.85981984 31.49490857 9.84507067 24.87896544 9.84176475 C20.93152657 9.83942063 16.98436514 9.83054466 13.03700066 9.80530357 C9.31786008 9.781907 5.59917728 9.77783558 1.87998199 9.78806496 C-0.12197815 9.78879114 -2.12391564 9.76977955 -4.1257782 9.75 C-17.21283118 9.82493936 -25.51338944 13.66513611 -34.41162109 23.25878906 Z " fill="#D7D4CE" transform="translate(70.41162109375,19.7412109375)"/>
<path d="M0 0 C1.35587247 -0.00271342 2.71174347 -0.00627632 4.06761169 -0.01062012 C7.73507693 -0.01970642 11.40242911 -0.01621498 15.06989622 -0.00986195 C18.91872164 -0.00478036 22.76753771 -0.00949958 26.61636353 -0.01263428 C33.0806857 -0.01626852 39.54496212 -0.01148997 46.00927734 -0.00195312 C53.46590645 0.00892118 60.92242608 0.00541113 68.37905252 -0.00560594 C74.79627584 -0.01470528 81.21346634 -0.0159509 87.63069403 -0.0107286 C91.45665823 -0.00762224 95.28257112 -0.00716249 99.10853195 -0.01380157 C102.70862721 -0.0196127 106.30858253 -0.01550982 109.9086628 -0.00401306 C111.84751828 -0.00014071 113.7863857 -0.00602056 115.72523499 -0.01226807 C130.08109189 0.05682254 142.92660502 3.19153788 153.58837891 13.25878906 C164.16282739 24.87814352 166.89806174 36.06502568 166.84716797 51.49267578 C166.85242493 53.4600621 166.85242493 53.4600621 166.85778809 55.4671936 C166.86686191 59.04582762 166.86338815 62.62434558 166.85702991 66.20298147 C166.85194175 69.96191295 166.85666936 73.72083495 166.85980225 77.47976685 C166.86343461 83.79268158 166.85866292 90.10554943 166.84912109 96.41845703 C166.83824738 103.6961563 166.84175717 110.9737434 166.8527739 118.25143993 C166.86187891 124.51923128 166.86311612 130.78698906 166.85789657 137.05478489 C166.85479326 140.78966362 166.8543219 144.52448982 166.86096954 148.25936508 C166.86787219 152.42834758 166.85827799 156.59713986 166.84716797 160.76611328 C166.85121643 161.9892926 166.85526489 163.21247192 166.85943604 164.47271729 C166.78022191 180.57652376 163.22776727 193.6194007 151.58837891 205.25878906 C140.4664724 214.24955181 128.49193698 216.86835457 114.45727539 216.76049805 C113.08420257 216.76429166 111.71113359 216.76980021 110.33807373 216.77687073 C106.64584844 216.79070586 102.95409539 216.77974147 99.26189685 216.76315951 C95.37666734 216.74919298 91.49146206 216.75578208 87.60621643 216.7592926 C81.08595267 216.76198532 74.56587399 216.74859931 68.0456543 216.7253418 C60.5326697 216.69872677 53.01999406 216.69699202 45.50697845 216.70873016 C38.24542229 216.7195492 30.9839767 216.71328935 23.72242928 216.69917488 C20.64734308 216.69345186 17.57233878 216.69346844 14.49725151 216.69824028 C10.86991744 216.70305048 7.24291709 216.69274338 3.61564636 216.67128563 C1.66769499 216.66316531 -0.28030036 216.66952392 -2.22825623 216.67648315 C-14.19700048 216.57637464 -23.57243949 214.11077488 -33.41162109 207.25878906 C-34.36875 206.5975 -34.36875 206.5975 -35.34521484 205.92285156 C-44.49776642 198.86988309 -49.63406329 187.78534557 -51.19530296 176.539814 C-51.6790081 171.43925458 -51.57739692 166.30502108 -51.58862305 161.18603516 C-51.59519424 159.87940918 -51.60176544 158.5727832 -51.60853577 157.2265625 C-51.62945944 152.91179609 -51.63992773 148.5970298 -51.64990234 144.28222656 C-51.65395439 142.78951627 -51.65807144 141.29680616 -51.66225243 139.80409622 C-51.68127908 132.78764418 -51.6955149 125.77120247 -51.7038644 118.75472963 C-51.71362506 110.68837354 -51.73992442 102.6222927 -51.78036529 94.55603349 C-51.81064462 88.29926314 -51.82534443 82.04257118 -51.82864541 75.78572905 C-51.83098254 72.05901743 -51.83976669 68.33260069 -51.86510658 64.60596848 C-51.8929804 60.43977625 -51.88852031 56.27419005 -51.8815918 52.10791016 C-51.89440186 50.89394562 -51.90721191 49.67998108 -51.92041016 48.42922974 C-51.83232947 33.81537233 -47.38099763 22.86376005 -37.50146484 12.19628906 C-26.89587344 2.09157774 -14.03569044 -0.04508162 0 0 Z M-37.14599609 17.67285156 C-46.67103435 28.54453316 -47.71270341 41.5705976 -47.70214844 55.39672852 C-47.70886566 56.67453186 -47.71558289 57.95233521 -47.72250366 59.26885986 C-47.74003383 62.74632195 -47.74485346 66.22368536 -47.74613523 69.70118737 C-47.74756466 71.88132431 -47.75184908 74.06143679 -47.75712967 76.24156761 C-47.77558613 83.86866196 -47.78380569 91.49568679 -47.78222656 99.12280273 C-47.78102596 106.19835203 -47.80212352 113.27359591 -47.83371389 120.34906799 C-47.85998193 126.45304602 -47.87058949 132.55692492 -47.86931574 138.66095895 C-47.86880924 142.29371336 -47.8743176 145.92619582 -47.89567184 149.5588932 C-47.91888005 153.61702538 -47.90946946 157.67448507 -47.89746094 161.73266602 C-47.90869995 162.9138652 -47.91993896 164.09506439 -47.93151855 165.3120575 C-47.83735792 177.91138398 -44.43510216 189.38738027 -36.41162109 199.25878906 C-24.86275009 210.4130044 -12.56396311 212.56078668 2.97998047 212.54931641 C4.95498787 212.55939224 4.95498787 212.55939224 6.96989441 212.56967163 C10.55898174 212.58722994 14.14797351 212.59202271 17.73709965 212.5933032 C19.98641242 212.59473127 22.23570141 212.5990132 24.48500824 212.60429764 C32.35200016 212.62276498 40.21892462 212.63097248 48.0859375 212.62939453 C55.38697285 212.62819435 62.68771202 212.64928085 69.98867249 212.68088186 C76.28371116 212.70714535 82.57865369 212.71775762 88.87374663 212.71648371 C92.6216487 212.71597699 96.36928725 212.72149802 100.11713409 212.74283981 C103.6467936 212.76239304 107.17594281 212.76223219 110.70562172 212.74780655 C112.59600463 212.74476286 114.48638855 212.76127492 116.37669373 212.77868652 C128.88228389 212.68806039 140.11666638 209.71329303 149.58837891 201.25878906 C157.05836702 193.40093618 161.68404386 184.28810442 161.74227905 173.39172363 C161.75087952 172.19192871 161.75947998 170.99213379 161.76834106 169.75598145 C161.77260101 168.44270874 161.77686096 167.12943604 161.78125 165.77636719 C161.78915563 164.37654418 161.79742487 162.97672318 161.80603027 161.5769043 C161.8322074 156.98130222 161.84755833 152.38569127 161.86181641 147.79003906 C161.86717875 146.20413712 161.87255627 144.61823522 161.87794876 143.03233337 C161.89957538 136.43029824 161.91830797 129.8282655 161.92957115 123.22620392 C161.94578294 113.7874475 161.97889539 104.34910449 162.035972 94.91050386 C162.07479259 88.26230775 162.09421838 81.61422162 162.09949172 74.9659152 C162.10313001 71.00158904 162.11498661 67.03770424 162.14759445 63.07350159 C162.17788788 59.33703742 162.18391243 55.60127668 162.17221069 51.86471558 C162.17188818 49.8583513 162.19621385 47.85202904 162.22158813 45.8458252 C162.14080469 33.97515695 158.76906398 24.24371606 150.45166016 15.59082031 C138.45656733 5.82128359 126.57088465 4.10795731 111.54394531 4.11352539 C110.24064774 4.11016678 108.93735016 4.10680817 107.59455872 4.10334778 C104.03456038 4.0945497 100.47458612 4.09217146 96.91457796 4.09153199 C94.68642079 4.09081919 92.45826965 4.08868052 90.23011398 4.08603477 C82.44556035 4.07679571 74.66102378 4.07269814 66.87646484 4.07348633 C59.63796828 4.07408696 52.39954627 4.06353438 45.16106856 4.04774266 C38.93068615 4.03463809 32.70032803 4.02930364 26.46993196 4.02994174 C22.75574198 4.03019584 19.04161833 4.02739338 15.32744217 4.01676369 C11.18211064 4.00522274 7.0369448 4.00984735 2.89160156 4.01586914 C1.67260666 4.01024963 0.45361176 4.00463013 -0.80232239 3.99884033 C-15.25471608 4.05210178 -26.50425529 7.60000885 -37.14599609 17.67285156 Z " fill="#121213" transform="translate(70.41162109375,19.7412109375)"/>
<path d="M0 0 C0.33 0 0.66 0 1 0 C1.33 24.42 1.66 48.84 2 74 C2.66 74 3.32 74 4 74 C3.99777939 73.23071671 3.99555878 72.46143341 3.99327087 71.6688385 C3.97315896 64.38715118 3.95797057 57.1054775 3.94818783 49.82376957 C3.94298922 46.08098723 3.93594703 42.33822802 3.92456055 38.59545898 C3.91362354 34.97742424 3.90770045 31.35941163 3.90512276 27.74136162 C3.90328787 26.36720876 3.89970515 24.99305699 3.89426994 23.61891365 C3.8665968 16.32653468 4.00375776 9.22878885 5 2 C5.33 2 5.66 2 6 2 C6.00238835 2.66499921 6.00477671 3.32999842 6.00723743 4.01514912 C6.06650372 20.23384352 6.14212761 36.45237212 6.23571491 52.67090321 C6.280584 60.514231 6.32001888 68.35751429 6.34643555 76.20092773 C6.3694879 83.04127317 6.40296598 89.8814767 6.44870156 96.72170943 C6.47253678 100.33992848 6.49132879 103.95800785 6.49761391 107.57630348 C6.5048451 111.62634731 6.53536352 115.6759082 6.56762695 119.72583008 C6.56619186 120.91122879 6.56475677 122.0966275 6.5632782 123.31794739 C6.68792679 134.42638932 8.53605053 144.41888673 16 153 C25.47716231 161.87297164 33.17321755 163.44960623 45.88305664 163.45166016 C47.28993652 163.46228651 48.69680773 163.47411903 50.10366821 163.48706055 C53.91194917 163.51773638 57.72004219 163.5289716 61.52843404 163.53470278 C63.91410823 163.53906973 66.29973448 163.54745418 68.68539238 163.55720139 C77.02685897 163.59091963 85.36818454 163.60807848 93.7097168 163.61083984 C101.45398059 163.61386853 109.19744267 163.65424439 116.94147402 163.71198809 C123.61357149 163.75996539 130.28540626 163.78057212 136.95767492 163.78063047 C140.93221346 163.7811655 144.90596709 163.79246268 148.88032722 163.83180618 C152.62611722 163.86800909 156.37045843 163.86975658 160.11633682 163.84663391 C162.12230803 163.84246965 164.12826225 163.87257545 166.13398743 163.90426636 C177.25364748 163.77799562 187.182962 160.29981802 195.125 152.1875 C200.38817118 145.36930097 203.10179192 137.01436606 203.15821838 128.4697876 C203.1680072 127.34520645 203.17779602 126.22062531 203.18788147 125.06196594 C203.19363693 123.83269882 203.1993924 122.6034317 203.20532227 121.33691406 C203.21522186 120.03910507 203.22512146 118.74129608 203.23532104 117.40415955 C203.26233174 113.8487443 203.28336203 110.29331583 203.30332303 106.73785496 C203.32520627 103.02091125 203.35258351 99.30400812 203.37937927 95.58709717 C203.42927456 88.55009989 203.47422511 81.51308005 203.51740164 74.47603869 C203.56680107 66.46397972 203.62170916 58.45196146 203.67708123 50.43994188 C203.79085269 33.9599988 203.89770225 17.48001838 204 1 C204.33 1 204.66 1 205 1 C205.33 6.61 205.66 12.22 206 18 C206.66 18.33 207.32 18.66 208 19 C207.67 20.98 207.34 22.96 207 25 C206.01 23.02 206.01 23.02 205 21 C205.33 22.65 205.66 24.3 206 26 C206.66 26 207.32 26 208 26 C208 26.66 208 27.32 208 28 C207.34 28 206.68 28 206 28 C205.67 37.9 205.34 47.8 205 58 C205.66 58 206.32 58 207 58 C207 58.66 207 59.32 207 60 C206.34 60 205.68 60 205 60 C205 83.1 205 106.2 205 130 C205.99 130 206.98 130 208 130 C210.09745735 137.86546506 207.0759129 144.40175098 203.125 151.25 C202.42375 152.1575 201.7225 153.065 201 154 C200.60425781 154.56203125 200.20851562 155.1240625 199.80078125 155.703125 C193.59581805 163.88158652 183.79896256 167.85193409 174 170 C169.48915457 170.41212589 165.00632299 170.41060407 160.47900391 170.38818359 C159.16057999 170.39344055 157.84215607 170.39869751 156.48377991 170.40411377 C152.89475217 170.41769316 149.30598557 170.41252724 145.71695375 170.40297651 C141.9416161 170.39532771 138.16629932 170.4024402 134.39096069 170.40713501 C128.05129018 170.41257881 121.71172482 170.40543863 115.37207031 170.39111328 C108.07046394 170.37480348 100.76910915 170.3800686 93.46750891 170.3965925 C87.17160872 170.41026365 80.8757837 170.41209926 74.57987344 170.40427649 C70.83152361 170.39962892 67.08329149 170.39889356 63.33494949 170.40888596 C59.80696701 170.41763533 56.27930451 170.41139067 52.75135612 170.39420319 C50.85962727 170.38842737 48.96787094 170.39718639 47.07615662 170.40658569 C33.5768253 170.3076951 22.47629527 167.45108461 12.19140625 158.41015625 C1.97574246 147.55767186 -0.31141107 134.13597894 -0.22705078 119.8828125 C-0.22734283 118.5844194 -0.22763489 117.28602631 -0.22793579 115.94828796 C-0.22850667 112.40956207 -0.21679558 108.87097338 -0.20278788 105.33227921 C-0.19023608 101.62606767 -0.18910652 97.91985256 -0.18673706 94.21362305 C-0.18053532 87.2050394 -0.16414227 80.19651858 -0.14403808 73.18796253 C-0.12163832 65.20486642 -0.11067542 57.22176721 -0.10064721 49.23864746 C-0.07977481 32.82572827 -0.04462437 16.41287217 0 0 Z " fill="#F4F0E8" transform="translate(23,62)"/>
<path d="M0 0 C4.74375 -0.0825 9.4875 -0.165 14.375 -0.25 C15.8501709 -0.28641602 17.3253418 -0.32283203 18.84521484 -0.36035156 C28.22106828 -0.43885297 35.16639264 0.77759509 43 6 C46.94761997 9.94761997 47.31520484 13.29340683 47.375 18.8125 C47.27415875 24.88188248 46.87298338 28.3116517 43 33 C34.37265892 40.39486378 23.67998722 40.41131099 12.875 40.1875 C8.62625 40.125625 4.3775 40.06375 0 40 C0 26.8 0 13.6 0 0 Z " fill="#141515" transform="translate(102,80)"/>
<path d="M0 0 C1.3656066 -0.0010742 2.73121274 -0.00301492 4.09681702 -0.00575256 C7.78868043 -0.01058026 11.48042208 -0.00297255 15.17227077 0.00720048 C19.03991486 0.01600978 22.90755545 0.01422301 26.77520752 0.01383972 C33.26470976 0.01477472 39.75416509 0.0234387 46.24365234 0.03710938 C53.74809056 0.05285962 61.25247752 0.05810647 68.75693107 0.05737382 C76.75064833 0.0566988 84.74434583 0.06363458 92.73805714 0.07282043 C95.04127134 0.07495231 97.34448235 0.07566166 99.64769745 0.07605934 C103.26251543 0.07706279 106.87729029 0.08315955 110.49209404 0.09322548 C112.45357191 0.09754539 114.41505863 0.09697853 116.37654114 0.09628296 C117.54011642 0.10054794 118.70369171 0.10481293 119.90252686 0.10920715 C120.91570354 0.110883 121.92888023 0.11255884 122.97275925 0.11428547 C125.49316406 0.24291992 125.49316406 0.24291992 128.49316406 1.24291992 C128.49316406 2.23291992 128.49316406 3.22291992 128.49316406 4.24291992 C127.78509141 4.24623007 127.07701876 4.24954021 126.34748936 4.25295067 C109.09473018 4.33427679 91.84206222 4.42640055 74.58942509 4.53044701 C66.24607731 4.58050507 57.90273902 4.62694862 49.55932617 4.66479492 C42.28467846 4.6978025 35.0101059 4.73768177 27.73554128 4.78570998 C23.88602033 4.81088808 20.03654868 4.83269468 16.18696785 4.84626389 C12.55820188 4.85916354 8.92960572 4.88130174 5.30093384 4.91030312 C3.34534491 4.92359193 1.38969801 4.92728505 -0.56593323 4.93061829 C-14.53161767 5.06252494 -26.07462238 8.11558736 -36.46386719 17.87963867 C-45.83655573 28.72185008 -46.81202446 41.7628428 -46.765625 55.46020508 C-46.76912964 56.74603989 -46.77263428 58.03187469 -46.77624512 59.35667419 C-46.78529288 62.85448059 -46.78185711 66.35216782 -46.77548695 69.84997606 C-46.77038938 73.52575002 -46.77512857 77.20151442 -46.77825928 80.87728882 C-46.78188713 87.04540827 -46.77712999 93.21347966 -46.76757812 99.3815918 C-46.75668617 106.49691475 -46.76022927 113.61212313 -46.77123094 120.72744334 C-46.78032604 126.85681624 -46.78157853 132.9861548 -46.7763536 139.11553228 C-46.77324734 142.76759873 -46.77278758 146.41961142 -46.77942657 150.07167435 C-46.78631175 154.14265918 -46.77675107 158.21344838 -46.765625 162.28442383 C-46.76967346 163.4835994 -46.77372192 164.68277496 -46.77789307 165.91828918 C-46.75364162 170.71567974 -46.69925094 175.1575727 -45.42816162 179.80282593 C-44.52899519 183.16018055 -44.52780791 184.10875025 -45.50683594 187.24291992 C-46.49683594 187.24291992 -47.48683594 187.24291992 -48.50683594 187.24291992 C-51.68526506 178.55521364 -51.66375924 170.32580517 -51.68383789 161.17016602 C-51.69040909 159.86354004 -51.69698029 158.55691406 -51.70375061 157.21069336 C-51.72467428 152.89592695 -51.73514258 148.58116066 -51.74511719 144.26635742 C-51.74916923 142.77364713 -51.75328628 141.28093702 -51.75746727 139.78822708 C-51.77649392 132.77177503 -51.79072974 125.75533333 -51.79907924 118.73886049 C-51.8088399 110.6725044 -51.83513926 102.60642356 -51.87558013 94.54016435 C-51.90585946 88.283394 -51.92055927 82.02670204 -51.92386025 75.76985991 C-51.92619739 72.04314829 -51.93498154 68.31673155 -51.96032143 64.59009933 C-51.98819524 60.42390711 -51.98373515 56.25832091 -51.97680664 52.09204102 C-51.9896167 50.87807648 -52.00242676 49.66411194 -52.015625 48.4133606 C-51.92754431 33.79950319 -47.47621247 22.84789091 -37.59667969 12.18041992 C-26.9558804 2.04216351 -14.07722027 -0.06229525 0 0 Z " fill="#0F1010" transform="translate(70.5068359375,19.757080078125)"/>
<path d="M0 0 C0.33 0 0.66 0 1 0 C1.33 24.42 1.66 48.84 2 74 C2.66 74 3.32 74 4 74 C3.99777939 73.23071671 3.99555878 72.46143341 3.99327087 71.6688385 C3.97315896 64.38715118 3.95797057 57.1054775 3.94818783 49.82376957 C3.94298922 46.08098723 3.93594703 42.33822802 3.92456055 38.59545898 C3.91362354 34.97742424 3.90770045 31.35941163 3.90512276 27.74136162 C3.90328787 26.36720876 3.89970515 24.99305699 3.89426994 23.61891365 C3.8665968 16.32653468 4.00375776 9.22878885 5 2 C5.33 2 5.66 2 6 2 C6.00238835 2.66499921 6.00477671 3.32999842 6.00723743 4.01514912 C6.06650372 20.23384352 6.14212761 36.45237212 6.23571491 52.67090321 C6.280584 60.514231 6.32001888 68.35751429 6.34643555 76.20092773 C6.3694879 83.04127317 6.40296598 89.8814767 6.44870156 96.72170943 C6.47253678 100.33992848 6.49132879 103.95800785 6.49761391 107.57630348 C6.5048451 111.62634731 6.53536352 115.6759082 6.56762695 119.72583008 C6.56619186 120.91122879 6.56475677 122.0966275 6.5632782 123.31794739 C6.68792679 134.42638932 8.53605053 144.41888673 16 153 C25.43354453 161.83213459 33.08651903 163.44641174 45.73803711 163.43237305 C47.12822333 163.44139936 48.51840161 163.45172871 49.90856934 163.46325684 C53.66632069 163.49075118 57.42392072 163.50010099 61.1817596 163.50611091 C65.11493176 163.51551437 69.04799177 163.54171931 72.98109436 163.56611633 C80.42173365 163.6097309 87.8623511 163.63830878 95.30307919 163.66143972 C103.77714742 163.68851848 112.25110254 163.73242831 120.72508991 163.77772844 C138.15000164 163.87050245 155.57493782 163.94221628 173 164 C173 164.33 173 164.66 173 165 C128.12 165.33 83.24 165.66 37 166 C37.99 166.99 37.99 166.99 39 168 C32.05275068 169.51576349 28.14180196 168.45280178 22 165 C20.84951172 164.36191406 20.84951172 164.36191406 19.67578125 163.7109375 C9.13312427 157.30300677 3.32401595 147.29922655 0.43153763 135.501297 C-0.45922216 130.33823672 -0.25796956 125.10672242 -0.22705078 119.8828125 C-0.22734283 118.5844194 -0.22763489 117.28602631 -0.22793579 115.94828796 C-0.22850667 112.40956207 -0.21679558 108.87097338 -0.20278788 105.33227921 C-0.19023608 101.62606767 -0.18910652 97.91985256 -0.18673706 94.21362305 C-0.18053532 87.2050394 -0.16414227 80.19651858 -0.14403808 73.18796253 C-0.12163832 65.20486642 -0.11067542 57.22176721 -0.10064721 49.23864746 C-0.07977481 32.82572827 -0.04462437 16.41287217 0 0 Z " fill="#A2A19D" transform="translate(23,62)"/>
<path d="M0 0 C0 0.66 0 1.32 0 2 C62.37 2.495 62.37 2.495 126 3 C126 3.33 126 3.66 126 4 C125.29800287 4.00146656 124.59600574 4.00293312 123.87273598 4.00444412 C106.76143961 4.04155746 89.65035868 4.10063197 72.53922462 4.18390274 C64.2642651 4.22364751 55.98940004 4.2560631 47.71435547 4.27099609 C40.49860604 4.28403635 33.28306487 4.31106126 26.06743276 4.35461307 C22.24967322 4.37717483 18.43217004 4.39291388 14.61433792 4.39188385 C11.01414661 4.39113408 7.41452086 4.40921028 3.81447601 4.44116783 C1.87697777 4.45362727 -0.06061571 4.44662754 -1.99813843 4.43885803 C-13.52127168 4.57531151 -21.45594765 7.5074906 -29.80078125 15.51171875 C-35.55882697 22.02659463 -37.91385089 29.49970259 -39 38 C-39.08263596 38.63114716 -39.16527191 39.26229431 -39.25041199 39.91256714 C-40.16935614 47.81214407 -40.12723088 55.69360637 -40.09765625 63.6328125 C-40.09578713 65.12067619 -40.09436556 66.6085405 -40.09336853 68.09640503 C-40.08958222 71.97938793 -40.07978594 75.86233239 -40.06866455 79.74530029 C-40.05836607 83.72081991 -40.05385298 87.69634584 -40.04882812 91.671875 C-40.0381595 99.44793404 -40.0211308 107.2239616 -40 115 C-40.33 115 -40.66 115 -41 115 C-41 113.35 -41 111.7 -41 110 C-41.66 110 -42.32 110 -43 110 C-43 119.57 -43 129.14 -43 139 C-43.33 139 -43.66 139 -44 139 C-44.11720287 124.86513342 -44.20483463 110.73034303 -44.25906086 96.59508896 C-44.28509393 90.03066847 -44.32037783 83.46657568 -44.37719727 76.90234375 C-44.43174012 70.56104586 -44.4614678 64.22006213 -44.47438622 57.87854767 C-44.48358607 55.46575225 -44.50155093 53.05297297 -44.52865028 50.64031219 C-44.70207678 34.55238341 -44.82323389 22.08642085 -33.03125 9.8984375 C-22.92528335 0.45324559 -13.72878095 -1.81995367 0 0 Z " fill="#C6C3BE" transform="translate(68,26)"/>
<path d="M0 0 C0.33 0.66 0.66 1.32 1 2 C2.32 1.67 3.64 1.34 5 1 C5 45.88 5 90.76 5 137 C4.67 136.34 4.34 135.68 4 135 C3.01 135 2.02 135 1 135 C1 111.9 1 88.8 1 65 C1.66 65 2.32 65 3 65 C3 64.34 3 63.68 3 63 C2.34 63 1.68 63 1 63 C0.9753015 59.04900072 0.95714077 55.09803126 0.94506836 51.14697266 C0.93755964 49.14093449 0.9248553 47.13491798 0.91210938 45.12890625 C0.90888672 43.87207031 0.90566406 42.61523438 0.90234375 41.3203125 C0.89448853 39.57645264 0.89448853 39.57645264 0.88647461 37.79736328 C1 35 1 35 2 33 C2.66 33 3.32 33 4 33 C4 32.34 4 31.68 4 31 C3.01 31.33 2.02 31.66 1 32 C1 30.02 1 28.04 1 26 C1.66 26.33 2.32 26.66 3 27 C3.33 26.01 3.66 25.02 4 24 C3.01 23.67 2.02 23.34 1 23 C0.67 15.41 0.34 7.82 0 0 Z " fill="#F7F4ED" transform="translate(227,57)"/>
<path d="M0 0 C0.99 0.33 1.98 0.66 3 1 C3.00331015 1.68837952 3.00662029 2.37675903 3.01003075 3.08599854 C3.09133615 19.85438885 3.1834532 36.62268164 3.28752708 53.39094543 C3.33759761 61.50003178 3.38404107 69.60910829 3.421875 77.71826172 C3.45486955 84.78817659 3.49474176 91.85801392 3.54279006 98.92784309 C3.56798103 102.66946179 3.58978393 106.41102954 3.60334396 110.15270996 C3.61862986 114.33499241 3.64927383 118.51702984 3.68115234 122.69921875 C3.68331253 123.93280624 3.68547272 125.16639374 3.68769836 126.43736267 C3.73516377 131.31383912 3.79030325 135.8591621 5.08242798 140.58129883 C5.97985765 143.92495337 5.97487846 144.87546201 5 148 C4.01 148 3.02 148 2 148 C0.42353056 143.80985658 -0.24841971 140.35713755 -0.24050903 135.88760376 C-0.24325836 134.6845459 -0.24600769 133.48148804 -0.24884033 132.24197388 C-0.24164978 130.93574066 -0.23445923 129.62950745 -0.22705078 128.28369141 C-0.22648618 126.88380949 -0.22680419 125.48392698 -0.22793579 124.08404541 C-0.22850839 120.2952131 -0.21676919 116.50650805 -0.20278788 112.71770525 C-0.19026498 108.75389791 -0.18910879 104.79008749 -0.18673706 100.82626343 C-0.18052687 93.32533331 -0.1641223 85.82446166 -0.14403808 78.32355726 C-0.12166473 69.78187181 -0.11068204 61.24018354 -0.10064721 52.69847608 C-0.07975566 35.1322836 -0.04458865 17.56614798 0 0 Z " fill="#0C0D0D" transform="translate(20,59)"/>
<path d="M0 0 C0.33 0 0.66 0 1 0 C1.495 8.415 1.495 8.415 2 17 C2.66 17.33 3.32 17.66 4 18 C3.67 19.98 3.34 21.96 3 24 C2.34 22.68 1.68 21.36 1 20 C1.495 22.475 1.495 22.475 2 25 C2.66 25 3.32 25 4 25 C4 25.66 4 26.32 4 27 C3.34 27 2.68 27 2 27 C1.67 36.9 1.34 46.8 1 57 C1.66 57 2.32 57 3 57 C3 57.66 3 58.32 3 59 C2.34 59 1.68 59 1 59 C1 82.1 1 105.2 1 129 C1.99 129 2.98 129 4 129 C6.09745735 136.86546506 3.0759129 143.40175098 -0.875 150.25 C-1.57625 151.1575 -2.2775 152.065 -3 153 C-3.39574219 153.56203125 -3.79148438 154.1240625 -4.19921875 154.703125 C-10.12212952 162.50982687 -18.69920044 166.26643615 -28.19921875 167.7734375 C-29.09060547 167.88558594 -29.09060547 167.88558594 -30 168 C-30.33 166.35 -30.66 164.7 -31 163 C-30.154375 162.70867187 -29.30875 162.41734375 -28.4375 162.1171875 C-17.51131269 158.16886072 -9.23146695 153.80243913 -4 143 C-0.97712622 135.20943401 -0.55777363 127.94780133 -0.56762695 119.65576172 C-0.5574353 118.35707657 -0.54724365 117.05839142 -0.53674316 115.72035217 C-0.50936675 112.19004232 -0.4999153 108.6598935 -0.49388909 105.12949133 C-0.4844545 101.42855904 -0.45824736 97.72774468 -0.43388367 94.02688599 C-0.39035397 87.03258908 -0.36172421 80.03831523 -0.33856028 73.04392445 C-0.3114357 65.07521471 -0.26752893 57.10662441 -0.22227156 49.13800025 C-0.12961928 32.75872755 -0.05785009 16.37943339 0 0 Z " fill="#D3D0CA" transform="translate(227,63)"/>
<path d="M0 0 C0.99 0 1.98 0 3 0 C4.5078125 2.37890625 4.5078125 2.37890625 6.125 5.5625 C11.17356644 14.58614822 18.98862902 20.46762966 28.85935974 23.58773804 C35.94248795 25.32816228 42.95902679 25.34891224 50.22265625 25.4140625 C51.5774397 25.43280968 52.93221191 25.45238563 54.28697205 25.4727478 C57.8230013 25.52370076 61.35906827 25.56352141 64.89526367 25.60089111 C68.51555422 25.64116414 72.13569296 25.69214917 75.75585938 25.7421875 C82.83712796 25.8385094 89.9184922 25.92305157 97 26 C97 26.99 97 27.98 97 29 C93.37124719 29.8297275 90.00207721 30.13537856 86.28271484 30.16113281 C85.15739349 30.17074036 84.03207214 30.1803479 82.87265015 30.19024658 C81.06010239 30.1966214 81.06010239 30.1966214 79.2109375 30.203125 C77.32962631 30.21167511 77.32962631 30.21167511 75.41030884 30.22039795 C72.75576151 30.22983923 70.10132696 30.23674016 67.44677734 30.24023438 C64.74286351 30.24461253 62.03926995 30.25848202 59.33544922 30.28125 C55.41884779 30.3118821 51.50264575 30.32230202 47.5859375 30.328125 C46.38971771 30.3404718 45.19349792 30.3528186 43.96102905 30.36553955 C32.0786554 30.33437445 22.75910321 27.79621939 13 21 C12.36191406 20.55914062 11.72382812 20.11828125 11.06640625 19.6640625 C5.78976187 15.59787329 1.77199408 10.03638185 -1 4 C-0.6875 1.6640625 -0.6875 1.6640625 0 0 Z " fill="#121213" transform="translate(24,206)"/>
<path d="M0 0 C1.02431988 0.97507373 2.02799511 1.97276756 3 3 C1.72125 3.226875 0.4425 3.45375 -0.875 3.6875 C-11.3545703 6.06922052 -20.93056333 11.68235206 -26.82421875 20.83203125 C-30.11365484 27.03656083 -32.10672408 33.03860831 -33 40 C-34.32 39.01 -35.64 38.02 -37 37 C-37 81.55 -37 126.1 -37 172 C-37.33 172 -37.66 172 -38 172 C-38.09370214 154.49235964 -38.16410538 136.98479825 -38.20724869 119.476964 C-38.22781893 111.34661762 -38.25583269 103.21642761 -38.30175781 95.08618164 C-38.34179618 87.99466406 -38.367473 80.90325981 -38.37635398 73.81163234 C-38.38154018 70.06132413 -38.39361184 66.31133995 -38.42292023 62.56113625 C-38.45035924 59.02097061 -38.45838859 55.48125806 -38.45243073 51.94099617 C-38.45403144 50.043338 -38.4754036 48.14572755 -38.49768066 46.24819946 C-38.42835621 31.59579002 -33.9970727 20.63487604 -24.08984375 9.9375 C-18.62707814 4.73272948 -7.74609845 -2.90478692 0 0 Z " fill="#2C2C2C" transform="translate(57,22)"/>
<path d="M0 0 C11.83752529 1.24605529 21.41510866 7.3088043 28.8125 16.4375 C33.69840039 23.12585552 36.40685367 28.69595135 37 37 C36.01 37 35.02 37 34 37 C34 82.21 34 127.42 34 174 C33.67 174 33.34 174 33 174 C32.99945523 173.28953899 32.99891047 172.57907799 32.99834919 171.84708786 C32.98334769 154.51809698 32.9407652 137.18939041 32.86790943 119.86054611 C32.83333337 111.48024365 32.80791364 103.10010441 32.80444336 94.71972656 C32.80139314 87.41090838 32.78076143 80.10238145 32.73947543 72.79367566 C32.71823899 68.92772894 32.70549613 65.0621953 32.71384621 61.19618988 C32.72144639 57.54829632 32.70532568 53.9012356 32.67193985 50.25349426 C32.6599211 48.29490262 32.67221729 46.33620756 32.68556213 44.37762451 C32.54288954 33.22998915 29.47924419 23.30701491 21.640625 15.109375 C14.27557389 9.22605015 5.41280502 4.88130294 -4 4 C-2.68 3.67 -1.36 3.34 0 3 C0 2.01 0 1.02 0 0 Z " fill="#4B4B4A" transform="translate(199,21)"/>
<path d="M0 0 C1.32 0 2.64 0 4 0 C4.04668861 17.68037513 4.08197342 35.3607343 4.10362434 53.04115772 C4.11394374 61.25019705 4.12801673 69.45919812 4.15087891 77.66821289 C4.1707925 84.82189305 4.18371161 91.9755455 4.18817699 99.12925261 C4.19078782 102.91825807 4.19693813 106.70718424 4.21146011 110.49616432 C4.22501198 114.0608327 4.22922752 117.62538895 4.22621536 121.19008064 C4.22702989 123.12540235 4.23780405 125.06071179 4.24884033 126.9960022 C4.246091 128.14445114 4.24334167 129.29290009 4.24050903 130.47615051 C4.24235262 131.4762959 4.24419621 132.47644129 4.24609566 133.50689411 C4 136 4 136 2 139 C1.67 108.64 1.34 78.28 1 47 C0.67 47 0.34 47 0 47 C0 31.49 0 15.98 0 0 Z " fill="#1A1A1A" transform="translate(233,58)"/>
<path d="M0 0 C0.99 0 1.98 0 3 0 C2.8570752 0.9691333 2.71415039 1.9382666 2.56689453 2.93676758 C0.43459567 19.02613832 0.7674639 35.17122894 0.8626709 51.36328125 C0.88344376 55.27927457 0.89233054 59.19529513 0.90234375 63.11132812 C0.92354094 70.74095792 0.95749504 78.3704559 1 86 C0.67 86 0.34 86 0 86 C0 84.35 0 82.7 0 81 C-0.66 81 -1.32 81 -2 81 C-2 90.57 -2 100.14 -2 110 C-2.33 110 -2.66 110 -3 110 C-3 75.02 -3 40.04 -3 4 C-2.01 3.67 -1.02 3.34 0 3 C0 2.01 0 1.02 0 0 Z " fill="#F3F0E9" transform="translate(27,55)"/>
<path d="M0 0 C1.11474701 0.00444122 2.22949402 0.00888245 3.37802124 0.01345825 C5.26975571 0.01368484 5.26975571 0.01368484 7.19970703 0.01391602 C8.58124956 0.02413006 9.96279048 0.03456206 11.34432983 0.04519653 C12.7539449 0.04892615 14.16356256 0.05177337 15.57318115 0.05377197 C19.28536116 0.06141248 22.99738494 0.08106442 26.70950317 0.10317993 C30.4966114 0.12362945 34.28374483 0.13277177 38.07089233 0.14285278 C45.50325526 0.16431004 52.93548942 0.19845087 60.36776733 0.24050903 C60.36776733 0.90050903 60.36776733 1.56050903 60.36776733 2.24050903 C80.16776733 2.73550903 80.16776733 2.73550903 100.36776733 3.24050903 C100.36776733 3.57050903 100.36776733 3.90050903 100.36776733 4.24050903 C55.15776733 4.24050903 9.94776733 4.24050903 -36.63223267 4.24050903 C-36.63223267 3.91050903 -36.63223267 3.58050903 -36.63223267 3.24050903 C-35.6733313 3.2206897 -34.71442993 3.20087036 -33.72647095 3.18045044 C-30.17411714 3.10446758 -26.62217691 3.01573973 -23.07022095 2.92312622 C-21.53189245 2.88480603 -19.99347342 2.84995847 -18.45498657 2.81863403 C-16.2455099 2.77304844 -14.03665818 2.71504564 -11.82754517 2.65457153 C-10.79308762 2.63724472 -10.79308762 2.63724472 -9.73773193 2.61956787 C-5.52824849 2.48898328 -3.77214179 0.34466337 0 0 Z " fill="#D6D2CC" transform="translate(96.63223266601563,227.75949096679688)"/>
<path d="M0 0 C0.33 0 0.66 0 1 0 C1.20031044 13.69958353 1.38401853 27.39927976 1.54658794 41.09936619 C1.6225976 47.46099993 1.70430456 53.82245373 1.79907227 60.18383789 C1.89033356 66.32396633 1.9665763 72.46411512 2.03244972 78.60456657 C2.06020127 80.94615563 2.0933459 83.28768723 2.13199425 85.62912178 C2.18524145 88.91104278 2.21923503 92.19264531 2.2487793 95.47485352 C2.27898415 96.92387054 2.27898415 96.92387054 2.30979919 98.40216064 C2.33675411 104.06639523 1.63109166 107.96242701 -1 113 C-1.99 112.67 -2.98 112.34 -4 112 C-3.11759758 104.43655073 -3.11759758 104.43655073 -2.48969269 102.10561562 C-1.67434865 98.59974107 -1.82902112 95.0255415 -1.81054688 91.44287109 C-1.80225357 90.58052856 -1.79396027 89.71818604 -1.78541565 88.82971191 C-1.76803193 86.95819292 -1.75286054 85.08665236 -1.73963928 83.21509933 C-1.71855757 80.24633985 -1.69153465 77.27768673 -1.66296387 74.30899048 C-1.60330588 67.99770173 -1.55119978 61.68636224 -1.5 55.375 C-1.44060195 48.07975154 -1.3780646 40.78455451 -1.30812073 33.48939896 C-1.28173568 30.57704586 -1.26080125 27.66468711 -1.2401123 24.75228882 C-1.22348863 22.94602214 -1.20661503 21.13975774 -1.18945312 19.33349609 C-1.1831765 18.1345018 -1.1831765 18.1345018 -1.17677307 16.9112854 C-1.11483442 11.23057315 -0.6437073 5.64332205 0 0 Z " fill="#0F0F10" transform="translate(234,95)"/>
<path d="M0 0 C22.44 0 44.88 0 68 0 C68 0.33 68 0.66 68 1 C63.38 1 58.76 1 54 1 C54 1.66 54 2.32 54 3 C62.25 3 70.5 3 79 3 C79 3.33 79 3.66 79 4 C53.59 4 28.18 4 2 4 C2 3.67 2 3.34 2 3 C4.64 3 7.28 3 10 3 C10 2.34 10 1.68 10 1 C6.7 1 3.4 1 0 1 C0 0.67 0 0.34 0 0 Z " fill="#F6F2EA" transform="translate(58,25)"/>
<path d="M0 0 C45.87 0 91.74 0 139 0 C139 0.33 139 0.66 139 1 C136.69 1.33 134.38 1.66 132 2 C132 2.33 132 2.66 132 3 C93 3 93 3 91.31306458 2.50610352 C88.17298428 1.81904718 85.20542665 1.88898885 81.9909668 1.90234375 C81.29271286 1.90380402 80.59445892 1.90526428 79.87504578 1.9067688 C78.36037678 1.91056897 76.84571221 1.91667941 75.33106041 1.92483521 C72.91965728 1.93765719 70.5083096 1.94413116 68.09687805 1.94897461 C62.09802409 1.96231628 56.09922179 1.98631673 50.10040283 2.01037598 C45.04322907 2.03029509 39.98607632 2.045867 34.92887306 2.05593872 C32.57898294 2.06231741 30.22918065 2.07483219 27.87931824 2.08764648 C18.53995164 2.1189049 9.31091157 1.75641529 0 1 C0 0.67 0 0.34 0 0 Z " fill="#222222" transform="translate(57,20)"/>
<path d="M0 0 C0.66 0 1.32 0 2 0 C2.33 23.43 2.66 46.86 3 71 C2.67 70.34 2.34 69.68 2 69 C1.01 69 0.02 69 -1 69 C-1.02574388 62.2271406 -1.04302848 55.45429419 -1.05493164 48.68139648 C-1.05990354 46.38614429 -1.06668341 44.09089517 -1.07543945 41.7956543 C-1.12732501 27.82623239 -0.93302471 13.94067241 0 0 Z " fill="#EEEAE2" transform="translate(229,123)"/>
<path d="M0 0 C0.99 0 1.98 0 3 0 C4.5078125 2.37890625 4.5078125 2.37890625 6.125 5.5625 C10.8874182 14.0746959 17.875191 19.56091479 27 23 C29.97852862 23.81444142 32.95944428 24.46508742 36 25 C36 25.33 36 25.66 36 26 C37.98 26.33 39.96 26.66 42 27 C42 27.33 42 27.66 42 28 C29.87050181 29.70346591 22.73977938 27.7051856 12.58203125 20.95703125 C6.6493578 16.46040584 2.11531757 10.74985473 -1 4 C-0.75 1.5625 -0.75 1.5625 0 0 Z " fill="#1E1E1E" transform="translate(24,206)"/>
<path d="M0 0 C1.32 0.66 2.64 1.32 4 2 C1.1063256 12.21032263 -6.2979412 19.36761444 -15.28125 24.62890625 C-20.03565742 27.02660309 -24.63121606 29 -30 29 C-30.66 27.68 -31.32 26.36 -32 25 C-31.17757812 24.79246094 -30.35515625 24.58492187 -29.5078125 24.37109375 C-17.97530966 21.18833604 -9.34426268 16.36438953 -3 6 C-1.94408082 4.02895087 -0.91760331 2.03911848 0 0 Z " fill="#1E1E1E" transform="translate(229,206)"/>
<path d="M0 0 C0.66 0.33 1.32 0.66 2 1 C2 2.65 2 4.3 2 6 C2.99 6 3.98 6 5 6 C4.67 5.01 4.34 4.02 4 3 C4.99 3.33 5.98 3.66 7 4 C7.70381157 5.98723268 8.3711811 7.98777953 9 10 C9.66 10.33 10.32 10.66 11 11 C10.67 12.65 10.34 14.3 10 16 C10.66 16.33 11.32 16.66 12 17 C10.9375 18.5 10.9375 18.5 9 20 C4.63293092 20.38991688 2.69486103 20.46324069 -1 18 C-1.25011518 15.43036425 -1.32709594 13.12353073 -1.25 10.5625 C-1.24484375 9.88123047 -1.2396875 9.19996094 -1.234375 8.49804688 C-1.18605024 5.41432316 -0.98103119 2.94309358 0 0 Z " fill="#ECE8E0" transform="translate(74,178)"/>
<path d="M0 0 C0.33 0 0.66 0 1 0 C1.19697084 2.97880524 1.38277673 5.95764386 1.5625 8.9375 C1.61857422 9.76830078 1.67464844 10.59910156 1.73242188 11.45507812 C2.06275821 17.11484061 1.76547933 22.38081467 1 28 C1.66 28.33 2.32 28.66 3 29 C2.34 29 1.68 29 1 29 C1.165 29.92167969 1.33 30.84335938 1.5 31.79296875 C2.23817347 36.95368502 2.06829752 42.11164414 2 47.3125 C1.9745627 49.28770649 1.95350518 51.26297581 1.9375 53.23828125 C1.92589844 54.10493408 1.91429688 54.97158691 1.90234375 55.86450195 C1.85768779 58.05361499 1.85768779 58.05361499 3 60 C2.34 60 1.68 60 1 60 C1.11341491 62.48020497 1.24014686 64.95844969 1.375 67.4375 C1.4059375 68.14455078 1.436875 68.85160156 1.46875 69.58007812 C1.57280629 71.39239188 1.77919892 73.19817988 2 75 C4.57211322 76.28605661 6.56906966 76.21043941 9.4453125 76.31640625 C10.41484863 76.35451416 11.38438477 76.39262207 12.38330078 76.43188477 C13.61806152 76.47498779 14.85282227 76.51809082 16.125 76.5625 C20.04375 76.706875 23.9625 76.85125 28 77 C28 69.08 28 61.16 28 53 C28.33 53 28.66 53 29 53 C29 61.25 29 69.5 29 78 C19.43 78 9.86 78 0 78 C0 52.26 0 26.52 0 0 Z " fill="#F8F4EC" transform="translate(72,121)"/>
<path d="M0 0 C3.01576776 0.32202266 4.57027965 0.54750645 6.6953125 2.78515625 C14.53127706 15.26703422 14.53127706 15.26703422 13.56640625 20.23046875 C13.37949219 20.81441406 13.19257813 21.39835937 13 22 C11.35 22 9.7 22 8 22 C7.77957031 21.05640625 7.77957031 21.05640625 7.5546875 20.09375 C6.02927747 14.27264506 4.12935065 10.28760668 0.109375 5.7890625 C-1 4 -1 4 -0.671875 1.7734375 C-0.45015625 1.18820313 -0.2284375 0.60296875 0 0 Z " fill="#E2DFD8" transform="translate(218,37)"/>
<path d="M0 0 C1.14726562 0.00451172 2.29453125 0.00902344 3.4765625 0.01367188 C6.27609813 0.02533661 9.07551986 0.04170386 11.875 0.0625 C12.37 2.0425 12.37 2.0425 12.875 4.0625 C8.58334802 4.09185775 4.29172236 4.10941802 0 4.125 C-1.20398438 4.13337891 -2.40796875 4.14175781 -3.6484375 4.15039062 C-10.54219146 4.16912365 -17.28420263 3.93858826 -24.125 3.0625 C-23.795 2.4025 -23.465 1.7425 -23.125 1.0625 C-15.68192522 -0.6184193 -7.57866068 -0.05728057 0 0 Z " fill="#EEE9E1" transform="translate(184.125,226.9375)"/>
<path d="M0 0 C0.66 0.66 1.32 1.32 2 2 C1.54109375 2.4846875 1.0821875 2.969375 0.609375 3.46875 C-3.59001468 8.05631856 -6.46488174 12.32133509 -9 18 C-9.99 18 -10.98 18 -12 18 C-12 18.99 -12 19.98 -12 21 C-12.99 21.33 -13.98 21.66 -15 22 C-14.67422369 14.83292123 -11.34556372 9.23072876 -8 3 C-7.01 3.33 -6.02 3.66 -5 4 C-4.67 3.01 -4.34 2.02 -4 1 C-2.0625 0.1875 -2.0625 0.1875 0 0 Z " fill="#E3E0D9" transform="translate(39,37)"/>
<path d="M0 0 C0.99 0.33 1.98 0.66 3 1 C3 1.66 3 2.32 3 3 C4.13501953 2.8453125 4.13501953 2.8453125 5.29296875 2.6875 C8 3 8 3 9.80078125 5.1875 C10.29964844 6.115625 10.79851562 7.04375 11.3125 8 C11.82425781 8.928125 12.33601562 9.85625 12.86328125 10.8125 C13.23839844 11.534375 13.61351562 12.25625 14 13 C4.58997722 14.33257403 4.58997722 14.33257403 0 13 C0.66 10.69 1.32 8.38 2 6 C0.35 4.68 -1.3 3.36 -3 2 C-2.01 2 -1.02 2 0 2 C0 1.34 0 0.68 0 0 Z " fill="#E6E3DB" transform="translate(173,184)"/>
<path d="M0 0 C11.88 0 23.76 0 36 0 C36 0.33 36 0.66 36 1 C32.7 1.33 29.4 1.66 26 2 C28.31 2.33 30.62 2.66 33 3 C33 3.33 33 3.66 33 4 C23.1 4 13.2 4 3 4 C3.99 3.34 4.98 2.68 6 2 C3.03 1.505 3.03 1.505 0 1 C0 0.67 0 0.34 0 0 Z " fill="#FAF6EE" transform="translate(162,25)"/>
<path d="M0 0 C25.41 0 50.82 0 77 0 C77 0.33 77 0.66 77 1 C73.7 1.33 70.4 1.66 67 2 C69.97 2.33 72.94 2.66 76 3 C76 3.33 76 3.66 76 4 C71.05 4 66.1 4 61 4 C61.66 3.67 62.32 3.34 63 3 C63 2.34 63 1.68 63 1 C42.21 1 21.42 1 0 1 C0 0.67 0 0.34 0 0 Z " fill="#FEFDF6" transform="translate(94,227)"/>
<path d="M0 0 C1.65 0 3.3 0 5 0 C5 0.33 5 0.66 5 1 C16.55 1 28.1 1 40 1 C40 0.67 40 0.34 40 0 C43.63 0 47.26 0 51 0 C51 0.99 51 1.98 51 3 C27.9 3 4.8 3 -19 3 C-19 2.67 -19 2.34 -19 2 C-12.73 1.67 -6.46 1.34 0 1 C0 0.67 0 0.34 0 0 Z " fill="#0A0A0B" transform="translate(148,21)"/>
<path d="M0 0 C0 0.33 0 0.66 0 1 C-2.31 1.33 -4.62 1.66 -7 2 C-7 2.33 -7 2.66 -7 3 C-18.22 3 -29.44 3 -41 3 C-41.33 2.34 -41.66 1.68 -42 1 C-27.98696157 0.08432888 -14.04093755 -0.12311627 0 0 Z " fill="#131414" transform="translate(196,20)"/>
<path d="M0 0 C0 0.66 0 1.32 0 2 C-13.3700028 3.41308973 -26.6006295 2.70137951 -40 2 C-40 1.34 -40 0.68 -40 0 C-26.66696765 -1.575722 -13.36849976 -0.66495696 0 0 Z " fill="#E9E5DD" transform="translate(152,26)"/>
<path d="M0 0 C8.25 0 16.5 0 25 0 C25 0.33 25 0.66 25 1 C20.38 1 15.76 1 11 1 C11 1.66 11 2.32 11 3 C19.25 3 27.5 3 36 3 C36 3.33 36 3.66 36 4 C22.14 4 8.28 4 -6 4 C-6 3.67 -6 3.34 -6 3 C-3.36 3 -0.72 3 2 3 C2 2.34 2 1.68 2 1 C1.34 0.67 0.68 0.34 0 0 Z " fill="#F9F5ED" transform="translate(101,25)"/>
<path d="M0 0 C0.66 0 1.32 0 2 0 C4.3853082 9.95771518 3.17383173 20.91762387 2 31 C1.01 30.67 0.02 30.34 -1 30 C-0.67 20.1 -0.34 10.2 0 0 Z " fill="#E5E1DA" transform="translate(25,136)"/>
<path d="M0 0 C0.99 0 1.98 0 3 0 C3.22704595 3.87413974 3.42830478 7.74921015 3.625 11.625 C3.68945312 12.71941406 3.75390625 13.81382813 3.8203125 14.94140625 C4.30707097 24.98079979 4.30707097 24.98079979 2 30 C1.67 30 1.34 30 1 30 C0.67 20.1 0.34 10.2 0 0 Z " fill="#EBE7DF" transform="translate(24,81)"/>
<path d="M0 0 C5.76044212 0.60636233 10.72014369 2.75658279 16 5 C15.34 6.32 14.68 7.64 14 9 C13.45472656 8.80664062 12.90945312 8.61328125 12.34765625 8.4140625 C6.9561948 6.55239547 1.59078274 5.12344334 -4 4 C-2.68 3.67 -1.36 3.34 0 3 C0 2.01 0 1.02 0 0 Z " fill="#222222" transform="translate(199,21)"/>
<path d="M0 0 C0.8353125 0.30744141 0.8353125 0.30744141 1.6875 0.62109375 C6.83617554 2.43878495 11.56276016 3.50570547 17 4 C16.01 4.66 15.02 5.32 14 6 C14.66 6.66 15.32 7.32 16 8 C7.42857143 9.42857143 7.42857143 9.42857143 4 7 C4 6.34 4 5.68 4 5 C3.34 5 2.68 5 2 5 C1.34 3.35 0.68 1.7 0 0 Z " fill="#DDDAD3" transform="translate(46,222)"/>
<path d="M0 0 C4.62 0 9.24 0 14 0 C14.33 1.32 14.66 2.64 15 4 C13.02 4.33 11.04 4.66 9 5 C8.67 4.34 8.34 3.68 8 3 C8 3.99 8 4.98 8 6 C7.34 6 6.68 6 6 6 C6 6.66 6 7.32 6 8 C5.34 7.67 4.68 7.34 4 7 C3.375 4.9375 3.375 4.9375 3 3 C3 4.32 3 5.64 3 7 C2.01 6.67 1.02 6.34 0 6 C0 4.02 0 2.04 0 0 Z " fill="#E6E2DB" transform="translate(73,58)"/>
<path d="M0 0 C0.5775 0.37125 1.155 0.7425 1.75 1.125 C1.75 3.105 1.75 5.085 1.75 7.125 C-2.42148265 7.31902245 -5.53944583 7.13930083 -9.25 5.125 C-9.58 4.135 -9.91 3.145 -10.25 2.125 C-9.38375 1.939375 -9.38375 1.939375 -8.5 1.75 C-6.21113478 1.21994561 -6.21113478 1.21994561 -4.25 -0.0625 C-2.25 -0.875 -2.25 -0.875 0 0 Z " fill="#E8E4DC" transform="translate(98.25,190.875)"/>
<path d="M0 0 C0.33 0 0.66 0 1 0 C1 5.61 1 11.22 1 17 C1.66 17 2.32 17 3 17 C2.67 15.68 2.34 14.36 2 13 C2.66 13 3.32 13 4 13 C4 22.57 4 32.14 4 42 C3.67 42 3.34 42 3 42 C2.8035969 38.70880065 2.61939255 35.41703066 2.4375 32.125 C2.38142578 31.18785156 2.32535156 30.25070313 2.26757812 29.28515625 C2.21923828 28.38925781 2.17089844 27.49335937 2.12109375 26.5703125 C2.05039673 25.32918701 2.05039673 25.32918701 1.97827148 24.06298828 C2 22 2 22 3 20 C2.01 20 1.02 20 0 20 C0 13.4 0 6.8 0 0 Z " fill="#F8F5EC" transform="translate(24,61)"/>
<path d="M0 0 C7.26 0 14.52 0 22 0 C22.33 1.32 22.66 2.64 23 4 C19.04 4 15.08 4 11 4 C11.33 3.01 11.66 2.02 12 1 C8.04 1 4.08 1 0 1 C0 0.67 0 0.34 0 0 Z " fill="#F5F2EA" transform="translate(174,227)"/>
<path d="M0 0 C0.66 0.99 1.32 1.98 2 3 C1.01 4.98 0.02 6.96 -1 9 C-1.99 9 -2.98 9 -4 9 C-4 9.99 -4 10.98 -4 12 C-4.99 12.33 -5.98 12.66 -7 13 C-6.01176471 4.6 -6.01176471 4.6 -4 1 C-1.875 0.1875 -1.875 0.1875 0 0 Z " fill="#D4D1CB" transform="translate(31,46)"/>
<path d="M0 0 C0.99 0.33 1.98 0.66 3 1 C3 1.66 3 2.32 3 3 C4.65 3 6.3 3 8 3 C8.33 3.66 8.66 4.32 9 5 C8.01 5 7.02 5 6 5 C6 5.66 6 6.32 6 7 C5.01 7.495 5.01 7.495 4 8 C4 8.99 4 9.98 4 11 C4 11.99 4 12.98 4 14 C2.68 13.67 1.36 13.34 0 13 C0.66 10.69 1.32 8.38 2 6 C0.35 4.68 -1.3 3.36 -3 2 C-2.01 2 -1.02 2 0 2 C0 1.34 0 0.68 0 0 Z " fill="#E1DDD6" transform="translate(173,184)"/>
<path d="M0 0 C0 0.66 0 1.32 0 2 C0.66 2.33 1.32 2.66 2 3 C-0.64 5.97 -3.28 8.94 -6 12 C-6.99 11.67 -7.98 11.34 -9 11 C-8.40300869 7.66864109 -7.27987719 5.78724333 -5.0625 3.25 C-4.53785156 2.63640625 -4.01320313 2.0228125 -3.47265625 1.390625 C-2 0 -2 0 0 0 Z " fill="#171718" transform="translate(36,31)"/>
<path d="M0 0 C0.66 0 1.32 0 2 0 C2 8.58 2 17.16 2 26 C-0.50499131 23.49500869 -0.59121829 22.51368549 -1 19 C-0.97143463 15.7208419 -0.77476438 12.45929926 -0.5625 9.1875 C-0.51029297 8.30384766 -0.45808594 7.42019531 -0.40429688 6.50976562 C-0.27525381 4.33949592 -0.13840044 2.16969307 0 0 Z " fill="#E9E5DD" transform="translate(229,123)"/>
<path d="M0 0 C0.33 0 0.66 0 1 0 C1 6.93 1 13.86 1 21 C0.34 21 -0.32 21 -1 21 C-1 19.02 -1 17.04 -1 15 C-1.33 19.62 -1.66 24.24 -2 29 C-2.33 29 -2.66 29 -3 29 C-3 22.73 -3 16.46 -3 10 C-2.01 10.33 -1.02 10.66 0 11 C0 7.37 0 3.74 0 0 Z " fill="#F8F5ED" transform="translate(27,156)"/>
<path d="M0 0 C2.3129482 2.3129482 2.49580975 3.47904875 3.125 6.625 C3.29257813 7.44226562 3.46015625 8.25953125 3.6328125 9.1015625 C3.81457031 10.04128906 3.81457031 10.04128906 4 11 C-0.875 12 -0.875 12 -2 12 C-2.625 8.625 -2.625 8.625 -3 5 C-2.34 4.34 -1.68 3.68 -1 3 C-0.67 2.01 -0.34 1.02 0 0 Z " fill="#D6D3CD" transform="translate(228,47)"/>
<path d="M0 0 C0.88365234 0.00451172 1.76730469 0.00902344 2.67773438 0.01367188 C4.84768559 0.02540134 7.01760172 0.04333505 9.1875 0.0625 C9.1875 0.3925 9.1875 0.7225 9.1875 1.0625 C5.8875 1.3925 2.5875 1.7225 -0.8125 2.0625 C-0.8125 2.3925 -0.8125 2.7225 -0.8125 3.0625 C-5.4325 3.0625 -10.0525 3.0625 -14.8125 3.0625 C-14.8125 2.4025 -14.8125 1.7425 -14.8125 1.0625 C-9.89747242 -0.22985715 -5.03959898 -0.04885517 0 0 Z " fill="#F2EFE7" transform="translate(188.8125,24.9375)"/>
<path d="M0 0 C6.93 0 13.86 0 21 0 C21.33 0.66 21.66 1.32 22 2 C11.11 2.495 11.11 2.495 0 3 C0 2.01 0 1.02 0 0 Z " fill="#121313" transform="translate(57,21)"/>
<path d="M0 0 C2.31 1.98 4.62 3.96 7 6 C6.01 6.495 6.01 6.495 5 7 C5.66 8.65 6.32 10.3 7 12 C2.37837838 10.54054054 2.37837838 10.54054054 0.6875 8.125 C-0.19376813 5.40108032 0 2.83647257 0 0 Z " fill="#E7E3DC" transform="translate(35,212)"/>
<path d="M0 0 C-0.33 1.65 -0.66 3.3 -1 5 C-3.31 5.33 -5.62 5.66 -8 6 C-8.66 4.68 -9.32 3.36 -10 2 C-8.7090864 1.66376204 -7.41723903 1.33110751 -6.125 1 C-5.40570313 0.814375 -4.68640625 0.62875 -3.9453125 0.4375 C-2 0 -2 0 0 0 Z " fill="#202020" transform="translate(207,229)"/>
<path d="M0 0 C0 0.66 0 1.32 0 2 C-5.9114744 2.77313045 -11.1314592 3.14819277 -17 2 C-11.33811187 -1.26647392 -6.31584512 -1.13685212 0 0 Z " fill="#E6E2DA" transform="translate(103,26)"/>
<path d="M0 0 C0.93423645 3.01031744 1.04449911 3.86650268 0 7 C0.66 7 1.32 7 2 7 C1.8864371 8.64666203 1.75882619 10.29236082 1.625 11.9375 C1.52058594 13.31228516 1.52058594 13.31228516 1.4140625 14.71484375 C1.27742188 15.46894531 1.14078125 16.22304687 1 17 C0.34 17.33 -0.32 17.66 -1 18 C-2.21456051 14.35631848 -1.91547658 11.69829989 -1.625 7.875 C-1.53476562 6.61429688 -1.44453125 5.35359375 -1.3515625 4.0546875 C-1 1 -1 1 0 0 Z " fill="#DFDBD4" transform="translate(26,170)"/>
<path d="M0 0 C0.33 0 0.66 0 1 0 C1.16276553 2.56506424 1.28113984 5.11975422 1.375 7.6875 C1.45041016 8.7693457 1.45041016 8.7693457 1.52734375 9.87304688 C1.61255201 12.98314841 1.65796194 15.12552922 -0.25683594 17.67041016 C-1.8359375 19.08203125 -1.8359375 19.08203125 -5 21 C-5.99 20.67 -6.98 20.34 -8 20 C-7.21625 19.2575 -6.4325 18.515 -5.625 17.75 C-1.73221322 13.67184242 -0.77474882 10.84648351 -0.375 5.25 C-0.26285156 3.77273437 -0.26285156 3.77273437 -0.1484375 2.265625 C-0.09945312 1.51796875 -0.05046875 0.7703125 0 0 Z " fill="#CDCAC5" transform="translate(149,95)"/>
<path d="M0 0 C1.43931117 0.45261358 2.87638999 0.91232979 4.3125 1.375 C5.11300781 1.63023437 5.91351563 1.88546875 6.73828125 2.1484375 C9 3 9 3 12 5 C10.68 5 9.36 5 8 5 C7.67 5.66 7.34 6.32 7 7 C6.01 7 5.02 7 4 7 C4 6.34 4 5.68 4 5 C3.34 5 2.68 5 2 5 C1.34 3.35 0.68 1.7 0 0 Z " fill="#ECE8E1" transform="translate(46,222)"/>
<path d="M0 0 C0.33 1.32 0.66 2.64 1 4 C-5.93 3.505 -5.93 3.505 -13 3 C-12.67 2.34 -12.34 1.68 -12 1 C-9.78515625 0.5859375 -9.78515625 0.5859375 -7.0625 0.375 C-6.16660156 0.30023438 -5.27070313 0.22546875 -4.34765625 0.1484375 C-2.90048294 0.05693569 -1.45006316 0 0 0 Z " fill="#E2DED7" transform="translate(173,227)"/>
<path d="M0 0 C7.26 0 14.52 0 22 0 C22 0.33 22 0.66 22 1 C19.69 1.33 17.38 1.66 15 2 C15 2.33 15 2.66 15 3 C13.02 3 11.04 3 9 3 C9 2.67 9 2.34 9 2 C6.03 1.67 3.06 1.34 0 1 C0 0.67 0 0.34 0 0 Z " fill="#202020" transform="translate(174,20)"/>
<path d="M0 0 C0.66 0.33 1.32 0.66 2 1 C1.175 1.763125 0.35 2.52625 -0.5 3.3125 C-3.34055197 5.75434142 -3.34055197 5.75434142 -3 9 C-4.98 9.99 -4.98 9.99 -7 11 C-7.33 9.68 -7.66 8.36 -8 7 C-5.36 4.69 -2.72 2.38 0 0 Z " fill="#121212" transform="translate(222,218)"/>
<path d="M0 0 C0.66 0 1.32 0 2 0 C2 2.31 2 4.62 2 7 C0.68 7.33 -0.64 7.66 -2 8 C-2.6875 6.25 -2.6875 6.25 -3 4 C-1.6875 1.75 -1.6875 1.75 0 0 Z " fill="#EBE7E0" transform="translate(222,209)"/>
<path d="M0 0 C0.66 0 1.32 0 2 0 C0.57849991 3.13152248 -1.13564224 5.58143518 -3.375 8.1875 C-4.25285156 9.22970703 -4.25285156 9.22970703 -5.1484375 10.29296875 C-7.13451225 12.12401235 -8.36234076 12.61074192 -11 13 C-10.29875 12.34 -9.5975 11.68 -8.875 11 C-5.97081229 8.12890844 -3.67055383 4.9123209 -1.33203125 1.57421875 C-0.89246094 1.05472656 -0.45289063 0.53523437 0 0 Z " fill="#E7E5DE" transform="translate(229,215)"/>
<path d="M0 0 C0.33 0 0.66 0 1 0 C1.33 2.64 1.66 5.28 2 8 C0.02 8 -1.96 8 -4 8 C-3.67 5.69 -3.34 3.38 -3 1 C-2.34 1.33 -1.68 1.66 -1 2 C-0.67 1.34 -0.34 0.68 0 0 Z " fill="#CECBC5" transform="translate(29,195)"/>
<path d="M0 0 C0.66 0 1.32 0 2 0 C2.33 2.64 2.66 5.28 3 8 C2.01 8 1.02 8 0 8 C-0.33 8.99 -0.66 9.98 -1 11 C-1.33 8.36 -1.66 5.72 -2 3 C-1.34 3 -0.68 3 0 3 C0 2.01 0 1.02 0 0 Z " fill="#1F1F1F" transform="translate(233,50)"/>
<path d="M0 0 C2.375 0.3125 2.375 0.3125 5 1 C5.66 1.99 6.32 2.98 7 4 C5.02 4.66 3.04 5.32 1 6 C0.34 5.34 -0.32 4.68 -1 4 C-0.625 1.875 -0.625 1.875 0 0 Z " fill="#DAD6D0" transform="translate(218,37)"/>
<path d="M0 0 C-1 2 -1 2 -3.0625 2.75 C-7.08267958 3.09214294 -10.12811376 2.11562824 -14 1 C-14 0.67 -14 0.34 -14 0 C-8.97703996 -1.13016601 -5.02125926 -0.77916092 0 0 Z " fill="#E7E2DB" transform="translate(169,26)"/>
<path d="M0 0 C2 1 2 1 3.3125 3.25 C4 6 4 6 2.6875 8.8125 C2.130625 9.534375 1.57375 10.25625 1 11 C0.67 11 0.34 11 0 11 C0 9.02 0 7.04 0 5 C-0.66 4.67 -1.32 4.34 -2 4 C-1.34 2.68 -0.68 1.36 0 0 Z " fill="#D6D3CC" transform="translate(224,204)"/>
<path d="M0 0 C0.33 0 0.66 0 1 0 C1 2.64 1 5.28 1 8 C0.34 7.34 -0.32 6.68 -1 6 C-1.66 7.32 -2.32 8.64 -3 10 C-3.33 7.69 -3.66 5.38 -4 3 C-2.68 2.67 -1.36 2.34 0 2 C0 1.34 0 0.68 0 0 Z " fill="#E9E5DE" transform="translate(28,191)"/>
<path d="M0 0 C2.475 0.495 2.475 0.495 5 1 C5 2.98 5 4.96 5 7 C3.68 6.67 2.36 6.34 1 6 C0.67 4.02 0.34 2.04 0 0 Z " fill="#EBE7DF" transform="translate(26,202)"/>
<path d="M0 0 C0.33 0 0.66 0 1 0 C1 4.29 1 8.58 1 13 C0.01 12.34 -0.98 11.68 -2 11 C-1.85957123 9.35369672 -1.71250671 7.70795821 -1.5625 6.0625 C-1.48128906 5.14597656 -1.40007812 4.22945313 -1.31640625 3.28515625 C-1 1 -1 1 0 0 Z " fill="#E7E2DB" transform="translate(230,100)"/>
<path d="M0 0 C1.98 0 3.96 0 6 0 C5.67 0.99 5.34 1.98 5 3 C4.34 3 3.68 3 3 3 C3 4.32 3 5.64 3 7 C2.01 6.67 1.02 6.34 0 6 C0 4.02 0 2.04 0 0 Z " fill="#DAD6CF" transform="translate(73,58)"/>
<path d="M0 0 C3.96 0 7.92 0 12 0 C12 0.66 12 1.32 12 2 C8.90521121 3.03159626 7.47368607 2.97482862 4.3125 2.5625 C3.10013672 2.40974609 3.10013672 2.40974609 1.86328125 2.25390625 C1.24839844 2.17011719 0.63351563 2.08632812 0 2 C0 1.34 0 0.68 0 0 Z " fill="#E1DDD5" transform="translate(145,228)"/>
<path d="M0 0 C-1 2 -1 2 -2.8125 2.875 C-5 3 -5 3 -7.25 1.0625 C-7.8275 0.381875 -8.405 -0.29875 -9 -1 C-5.79937313 -2.60031344 -3.27728194 -1.03173691 0 0 Z " fill="#141414" transform="translate(48,228)"/>
<path d="M0 0 C0.33 0.66 0.66 1.32 1 2 C1.66 2 2.32 2 3 2 C1.63016497 5.16115776 1.0109362 5.9927092 -2 8 C-2.66 7.34 -3.32 6.68 -4 6 C-2.68 4.02 -1.36 2.04 0 0 Z " fill="#DAD6CF" transform="translate(219,215)"/>
<path d="M0 0 C0 0.99 0 1.98 0 3 C1.65 2.34 3.3 1.68 5 1 C5.33 2.32 5.66 3.64 6 5 C-0.625 5.25 -0.625 5.25 -4 3 C-4 2.34 -4 1.68 -4 1 C-2 0 -2 0 0 0 Z " fill="#DCD8D1" transform="translate(77,193)"/>
<path d="M0 0 C1.2065625 0.0309375 1.2065625 0.0309375 2.4375 0.0625 C2.4375 0.7225 2.4375 1.3825 2.4375 2.0625 C1.7775 2.0625 1.1175 2.0625 0.4375 2.0625 C0.31375 2.701875 0.19 3.34125 0.0625 4 C-0.14375 4.680625 -0.35 5.36125 -0.5625 6.0625 C-1.5525 6.5575 -1.5525 6.5575 -2.5625 7.0625 C-2.94383299 5.0710944 -3.27575582 3.06970923 -3.5625 1.0625 C-2.5625 0.0625 -2.5625 0.0625 0 0 Z " fill="#E0DDD6" transform="translate(139.5625,165.9375)"/>
<path d="M0 0 C0.99 0.66 1.98 1.32 3 2 C3 2.99 3 3.98 3 5 C3.66 5 4.32 5 5 5 C5 5.66 5 6.32 5 7 C0.25 5.125 0.25 5.125 -2 4 C-1.34 2.68 -0.68 1.36 0 0 Z " fill="#E1DED7" transform="translate(45,222)"/>
<path d="M0 0 C0.6875 1.8125 0.6875 1.8125 1 4 C-0.4375 5.75 -0.4375 5.75 -2 7 C-2.99 6.34 -3.98 5.68 -5 5 C-4.34 5 -3.68 5 -3 5 C-3.33 3.68 -3.66 2.36 -4 1 C-2 0 -2 0 0 0 Z " fill="#EBE7DF" transform="translate(229,202)"/>
<path d="M0 0 C0.99 0.33 1.98 0.66 3 1 C2.01 1.495 2.01 1.495 1 2 C1 2.99 1 3.98 1 5 C1 5.99 1 6.98 1 8 C-0.32 7.67 -1.64 7.34 -3 7 C-1.125 1.125 -1.125 1.125 0 0 Z " fill="#DAD6CF" transform="translate(176,190)"/>
<path d="M0 0 C0.84304687 0.23009766 0.84304687 0.23009766 1.703125 0.46484375 C4.05838878 1.01360419 6.34548104 1.31497599 8.75 1.5625 C9.54921875 1.64628906 10.3484375 1.73007813 11.171875 1.81640625 C12.07679688 1.90728516 12.07679688 1.90728516 13 2 C13 2.33 13 2.66 13 3 C8.05 3 3.1 3 -2 3 C-1.34 2.67 -0.68 2.34 0 2 C0 1.34 0 0.68 0 0 Z " fill="#F5F0E8" transform="translate(157,228)"/>
<path d="M0 0 C0.33 0 0.66 0 1 0 C1 3.3 1 6.6 1 10 C0.34 10 -0.32 10 -1 10 C-1.33 10.66 -1.66 11.32 -2 12 C-2 9.69 -2 7.38 -2 5 C-1.34 5 -0.68 5 0 5 C0 3.35 0 1.7 0 0 Z " fill="#F1EDE4" transform="translate(27,145)"/>
<path d="M0 0 C0.33 0.66 0.66 1.32 1 2 C1.99 2 2.98 2 4 2 C4 4.31 4 6.62 4 9 C3.67 8.01 3.34 7.02 3 6 C2.01 6 1.02 6 0 6 C0 4.02 0 2.04 0 0 Z " fill="#E8E5DD" transform="translate(227,57)"/>
<path d="M0 0 C-0.66 1.32 -1.32 2.64 -2 4 C-3.32 3.67 -4.64 3.34 -6 3 C-6 2.01 -6 1.02 -6 0 C-2.25 -1.125 -2.25 -1.125 0 0 Z " fill="#F0ECE4" transform="translate(213,223)"/>
<path d="M0 0 C0.33 1.32 0.66 2.64 1 4 C1.99 4 2.98 4 4 4 C3.67 5.32 3.34 6.64 3 8 C3 7.34 3 6.68 3 6 C2.34 6 1.68 6 1 6 C0.67 6.66 0.34 7.32 0 8 C-0.98120464 4.94736336 -0.98120464 3.05263664 0 0 Z " fill="#D8D5CE" transform="translate(226,196)"/>
<path d="M0 0 C0.66 0.33 1.32 0.66 2 1 C2 3.31 2 5.62 2 8 C1.01 8 0.02 8 -1 8 C-1.08226668 4.95613276 -0.97608217 2.92824652 0 0 Z " fill="#E3DFD8" transform="translate(74,178)"/>
<path d="M0 0 C1.75 1.5625 1.75 1.5625 3 3 C-3.625 2.25 -3.625 2.25 -7 0 C-3.83170302 -1.05609899 -3.01480825 -1.13055309 0 0 Z " fill="#2C2C2B" transform="translate(57,22)"/>
<path d="M0 0 C0.66 0 1.32 0 2 0 C2 1.98 2 3.96 2 6 C1.01 6.33 0.02 6.66 -1 7 C-0.67 4.69 -0.34 2.38 0 0 Z " fill="#0E0E0E" transform="translate(22,195)"/>
<path d="M0 0 C0.66 0.66 1.32 1.32 2 2 C1.625 4.625 1.625 4.625 1 7 C0.34 7 -0.32 7 -1 7 C-1.04254356 5.00045254 -1.04080783 2.99958364 -1 1 C-0.67 0.67 -0.34 0.34 0 0 Z " fill="#EDE9E1" transform="translate(26,128)"/>
<path d="M0 0 C0.66 0.33 1.32 0.66 2 1 C1.74438677 3.3431213 1.40729228 5.67843403 1 8 C0.01 8.495 0.01 8.495 -1 9 C-1.125 2.25 -1.125 2.25 0 0 Z " fill="#E1DDD5" transform="translate(26,102)"/>
<path d="M0 0 C0.99 0 1.98 0 3 0 C3.33 2.64 3.66 5.28 4 8 C2 6.8125 2 6.8125 0 5 C-0.25 2.3125 -0.25 2.3125 0 0 Z " fill="#272727" transform="translate(20,54)"/>
<path d="M0 0 C0.99 0 1.98 0 3 0 C3 1.65 3 3.3 3 5 C1.68 5 0.36 5 -1 5 C-0.67 3.35 -0.34 1.7 0 0 Z " fill="#ECE8E1" transform="translate(225,46)"/>
<path d="M0 0 C0.66 0.66 1.32 1.32 2 2 C0.68 2.99 -0.64 3.98 -2 5 C-2.99 4.01 -3.98 3.02 -5 2 C-3.35 1.34 -1.7 0.68 0 0 Z " fill="#C8C5BF" transform="translate(39,37)"/>
</svg>
